# xmcd
#
# Track frame offsets:
#	150
#	12084
#	24630
#	36436
#	48660
#	59365
#	71984
#	83625
#	96068
#	108737
#	116095
#	129565
#
# Disc length: 1851 seconds
#
# Revision: 4
# Processed by: cddbd v1.5.2PL0 Copyright (c) Steve Scherf et al.
# Submitted via: EZCDAudioConverter 6.0.3.1
#
DISCID=a907390c
DTITLE=Patsy Cline - American Legends
DYEAR=1996
DGENRE=Country
TTITLE0=Walkin' After Midnight
TTITLE1=Your Cheatin' Heart
TTITLE2=Let The Teardrops Fall
TTITLE3=Crazy
TTITLE4=I Can See An Angel
TTITLE5=Just A Closer Walk With Thee
TTITLE6=A Poor Man's Roses
TTITLE7=Then You'll Know
TTITLE8=I Fall To Pieces
TTITLE9=Down By The Riverside
TTITLE10=She's Got You
TTITLE11=I Don't Wanna
EXTD=
EXTT0=
EXTT1=
EXTT2=
EXTT3=
EXTT4=
EXTT5=
EXTT6=
EXTT7=
EXTT8=
EXTT9=
EXTT10=
EXTT11=
PLAYORDER=
